<svg xmlns="http://www.w3.org/2000/svg" width="45.918" height="29.094" viewBox="0 0 45.918 29.094"><g transform="translate(14.755)"><path d="M364.786,56.9c-2.681-.2-4.537-.387-5.711-1.188.683-1.415,2.376-3.295,4.869-5.986l-.111-.11c-2.635,2.44-4.478,4.1-5.881,4.816-1.012-1.91-1.14-5.45-1.293-12H356.5c-.152,6.55-.28,10.091-1.293,12-1.4-.713-3.247-2.376-5.881-4.816l-.111.11c2.493,2.692,4.187,4.572,4.869,5.986-1.174.8-3.03.992-5.71,1.188v.156c2.68.2,4.536.386,5.71,1.188-.682,1.413-2.376,3.294-4.869,5.986l.111.111c2.636-2.44,4.48-4.1,5.881-4.816,1.012,1.91,1.14,5.45,1.293,12h.157c.152-6.55.28-10.09,1.293-12,1.4.712,3.246,2.376,5.881,4.816l.111-.111c-2.493-2.692-4.187-4.572-4.869-5.986,1.174-.8,3.03-.992,5.711-1.188Z" transform="translate(-348.378 -42.43)" fill="#000"/></g><g transform="translate(0 8.554)"><path d="M396.6,58.981h-.22c0,3.025,0,5.883-4.137,5.883v.22c4.137,0,4.137,2.857,4.137,5.883h.22c0-3.025,0-5.883,4.138-5.883v-.22C396.6,64.864,396.6,62.006,396.6,58.981Z" transform="translate(-354.816 -58.981)" fill="#000"/><path d="M324.185,58.981h-.22c0,3.025,0,5.883-4.138,5.883v.22c4.138,0,4.138,2.857,4.138,5.883h.22c0-3.025,0-5.883,4.138-5.883v-.22C324.185,64.864,324.185,62.006,324.185,58.981Z" transform="translate(-319.828 -58.981)" fill="#000"/></g></svg>